<mxfile host="Electron" agent="Mozilla/5.0 (Macintosh; Intel Mac OS X 10_15_7) AppleWebKit/537.36 (KHTML, like Gecko) draw.io/26.0.9 Chrome/128.0.6613.186 Electron/32.2.5 Safari/537.36" version="26.0.9">
  <diagram name="创业加速关键行动清单" id="LjdV36fw0-OK5oDhy-5O">
    <mxGraphModel dx="1482" dy="878" grid="1" gridSize="10" guides="1" tooltips="1" connect="1" arrows="1" fold="1" page="1" pageScale="1" pageWidth="1100" pageHeight="850" math="0" shadow="0">
      <root>
        <mxCell id="0" />
        <mxCell id="1" parent="0" />
        <mxCell id="GMRHYqqti2QiBmPr2piC-1" value="创业加速关键行动清单" style="text;html=1;fontSize=20;fontColor=#000000;align=center;verticalAlign=middle;" vertex="1" parent="1">
          <mxGeometry x="20" y="20" width="400" height="40" as="geometry" />
        </mxCell>
        <mxCell id="GMRHYqqti2QiBmPr2piC-2" value="1. 北极星指标定义 目标：确立核心方向锚点 任务：应用【逆向终局思维】、制定3层里程碑体系 时间：6分钟 产出：《战略罗盘》" style="rounded=1;whiteSpace=wrap;html=1;fillColor=#D5E8D4;strokeColor=#82B366;" vertex="1" parent="1">
          <mxGeometry x="20" y="80" width="240" height="100" as="geometry" />
        </mxCell>
        <mxCell id="GMRHYqqti2QiBmPr2piC-3" value="2. 赛道切割 目标：定位最佳切入点 任务：PESTEL快速扫描、绘制TAM/SAM/SOM图谱 时间：8分钟 产出：《蓝海坐标》" style="rounded=1;whiteSpace=wrap;html=1;fillColor=#FFF2CC;strokeColor=#D6B656;" vertex="1" parent="1">
          <mxGeometry x="280" y="80" width="240" height="100" as="geometry" />
        </mxCell>
        <mxCell id="GMRHYqqti2QiBmPr2piC-4" value="3. 价值锥体构建 目标：打造不可替代性 任务：设计价值主张金字塔、计算转换成本壁垒 时间：9分钟 产出：《价值锥体图》" style="rounded=1;whiteSpace=wrap;html=1;fillColor=#E1D5E7;strokeColor=#9673A6;" vertex="1" parent="1">
          <mxGeometry x="20" y="200" width="240" height="100" as="geometry" />
        </mxCell>
        <mxCell id="GMRHYqqti2QiBmPr2piC-5" value="4. 增长飞轮设计 目标：构建自驱机制 任务：拆解增长杠杆、设计病毒系数K因子 时间：7分钟 产出：《增长引擎图》" style="rounded=1;whiteSpace=wrap;html=1;fillColor=#DAE8FC;strokeColor=#6C8EBF;" vertex="1" parent="1">
          <mxGeometry x="280" y="200" width="240" height="100" as="geometry" />
        </mxCell>
        <mxCell id="GMRHYqqti2QiBmPr2piC-6" value="5. 经济单元验证 目标：确保商业可行性 任务：计算贡献边际、模拟3种定价策略 时间：10分钟 产出：《单元经济表》" style="rounded=1;whiteSpace=wrap;html=1;fillColor=#FFE6CC;strokeColor=#D79B00;" vertex="1" parent="1">
          <mxGeometry x="20" y="320" width="240" height="100" as="geometry" />
        </mxCell>
        <mxCell id="GMRHYqqti2QiBmPr2piC-7" value="6. MVP熔断测试 目标：最小化试错成本 任务：设计关键假设清单、构建灰度发布路线 时间：5分钟 产出：《实验沙盒》" style="rounded=1;whiteSpace=wrap;html=1;fillColor=#E2F0D9;strokeColor=#70AD47;" vertex="1" parent="1">
          <mxGeometry x="280" y="320" width="240" height="100" as="geometry" />
        </mxCell>
        <mxCell id="GMRHYqqti2QiBmPr2piC-8" value="7. 资本导航图 目标：规划融资节奏 任务：匹配融资阶段工具包、设计Term Sheet红线条款 时间：13分钟 产出：《资本路线图》" style="rounded=1;whiteSpace=wrap;html=1;fillColor=#F8CECC;strokeColor=#B85450;" vertex="1" parent="1">
          <mxGeometry x="20" y="440" width="240" height="100" as="geometry" />
        </mxCell>
        <mxCell id="GMRHYqqti2QiBmPr2piC-9" value="8. 抗脆弱架构 目标：植入风险免疫基因 任务：识别单点故障、设计反脆弱开关 时间：15分钟 产出：《风险拓扑图》" style="rounded=1;whiteSpace=wrap;html=1;fillColor=#D5E8D4;strokeColor=#82B366;" vertex="1" parent="1">
          <mxGeometry x="280" y="440" width="240" height="100" as="geometry" />
        </mxCell>
        <mxCell id="GMRHYqqti2QiBmPr2piC-10" value="9. 组织代码编写 目标：预防团队熵增 任务：制定文化守则、设计动态股权池 时间：12分钟 产出：《组织宪章》" style="rounded=1;whiteSpace=wrap;html=1;fillColor=#E1D5E7;strokeColor=#9673A6;" vertex="1" parent="1">
          <mxGeometry x="20" y="560" width="240" height="100" as="geometry" />
        </mxCell>
        <mxCell id="GMRHYqqti2QiBmPr2piC-11" value="10. 智能增强层 目标：部署AI加速器 任务：训练行业LLM助手、构建竞情监测机器人 时间：20分钟 产出：《AI赋能蓝图》" style="rounded=1;whiteSpace=wrap;html=1;fillColor=#DAE8FC;strokeColor=#6C8EBF;" vertex="1" parent="1">
          <mxGeometry x="280" y="560" width="240" height="100" as="geometry" />
        </mxCell>
        <mxCell id="GMRHYqqti2QiBmPr2piC-12" value="关键强化机制" style="group;whiteSpace=wrap;html=1;fontSize=16;fontColor=#000000;strokeColor=#000000;fillColor=#FFFFFF" vertex="1" parent="1">
          <mxGeometry x="540" y="80" width="320" height="120" as="geometry" />
        </mxCell>
        <mxCell id="GMRHYqqti2QiBmPr2piC-13" value="决策加速器：内置2x2快速决策矩阵" style="rounded=1;whiteSpace=wrap;html=1;fillColor=#E1F5FE;strokeColor=#039BE5;" vertex="1" parent="GMRHYqqti2QiBmPr2piC-12">
          <mxGeometry x="20" y="30" width="280" height="30" as="geometry" />
        </mxCell>
        <mxCell id="GMRHYqqti2QiBmPr2piC-14" value="认知保险丝：关键节点设置行为经济学检查点" style="rounded=1;whiteSpace=wrap;html=1;fillColor=#FFF9C4;strokeColor=#FBC02D;" vertex="1" parent="GMRHYqqti2QiBmPr2piC-12">
          <mxGeometry x="20" y="70" width="280" height="30" as="geometry" />
        </mxCell>
        <mxCell id="GMRHYqqti2QiBmPr2piC-15" value="诊断与升级建议" style="group;whiteSpace=wrap;html=1;fontSize=16;fontColor=#000000;strokeColor=#000000;fillColor=#FFFFFF" vertex="1" parent="1">
          <mxGeometry x="540" y="220" width="320" height="140" as="geometry" />
        </mxCell>
        <mxCell id="GMRHYqqti2QiBmPr2piC-16" value="风险：价值验证不足 优化：增加JTBD框架客户访谈模块 预期：PMF达成速度提升40%" style="rounded=1;whiteSpace=wrap;html=1;fillColor=#FCE4EC;strokeColor=#EC407A;" vertex="1" parent="GMRHYqqti2QiBmPr2piC-15">
          <mxGeometry x="20" y="30" width="280" height="50" as="geometry" />
        </mxCell>
        <mxCell id="GMRHYqqti2QiBmPr2piC-17" value="风险：财务模型脆弱 优化：植入Monte Carlo模拟引擎 预期：抗波动能力增强35%" style="rounded=1;whiteSpace=wrap;html=1;fillColor=#E8F5E9;strokeColor=#66BB6A;" vertex="1" parent="GMRHYqqti2QiBmPr2piC-15">
          <mxGeometry x="20" y="90" width="280" height="50" as="geometry" />
        </mxCell>
        <mxCell id="GMRHYqqti2QiBmPr2piC-18" value="方案健康度监测逻辑" style="group;whiteSpace=wrap;html=1;fontSize=16;fontColor=#000000;strokeColor=#000000;fillColor=#FFFFFF" vertex="1" parent="1">
          <mxGeometry x="540" y="380" width="320" height="220" as="geometry" />
        </mxCell>
        <mxCell id="GMRHYqqti2QiBmPr2piC-19" value="北极星指标" style="rounded=1;whiteSpace=wrap;html=1;fillColor=#D5E8D4;strokeColor=#82B366;" vertex="1" parent="GMRHYqqti2QiBmPr2piC-18">
          <mxGeometry x="20" y="30" width="120" height="40" as="geometry" />
        </mxCell>
        <mxCell id="GMRHYqqti2QiBmPr2piC-20" value="价值锥体" style="rounded=1;whiteSpace=wrap;html=1;fillColor=#E1D5E7;strokeColor=#9673A6;" vertex="1" parent="GMRHYqqti2QiBmPr2piC-18">
          <mxGeometry x="180" y="30" width="120" height="40" as="geometry" />
        </mxCell>
        <mxCell id="GMRHYqqti2QiBmPr2piC-21" value="单元经济" style="rounded=1;whiteSpace=wrap;html=1;fillColor=#FFE6CC;strokeColor=#D79B00;" vertex="1" parent="GMRHYqqti2QiBmPr2piC-18">
          <mxGeometry x="20" y="100" width="120" height="40" as="geometry" />
        </mxCell>
        <mxCell id="GMRHYqqti2QiBmPr2piC-22" value="MVP验证" style="rounded=1;whiteSpace=wrap;html=1;fillColor=#F8CECC;strokeColor=#B85450;" vertex="1" parent="GMRHYqqti2QiBmPr2piC-18">
          <mxGeometry x="180" y="100" width="120" height="40" as="geometry" />
        </mxCell>
        <mxCell id="GMRHYqqti2QiBmPr2piC-23" value="抗脆弱架构" style="rounded=1;whiteSpace=wrap;html=1;fillColor=#D5E8D4;strokeColor=#82B366;" vertex="1" parent="GMRHYqqti2QiBmPr2piC-18">
          <mxGeometry x="20" y="170" width="120" height="40" as="geometry" />
        </mxCell>
        <mxCell id="GMRHYqqti2QiBmPr2piC-24" value="智能增强" style="rounded=1;whiteSpace=wrap;html=1;fillColor=#DAE8FC;strokeColor=#6C8EBF;" vertex="1" parent="GMRHYqqti2QiBmPr2piC-18">
          <mxGeometry x="180" y="170" width="120" height="40" as="geometry" />
        </mxCell>
        <mxCell id="GMRHYqqti2QiBmPr2piC-25" style="edgeStyle=orthogonalEdgeStyle;rounded=0;html=1;exitPerimeter=1;entryPerimeter=1;" edge="1" parent="GMRHYqqti2QiBmPr2piC-18" source="GMRHYqqti2QiBmPr2piC-19" target="GMRHYqqti2QiBmPr2piC-20">
          <mxGeometry relative="1" as="geometry" />
        </mxCell>
        <mxCell id="GMRHYqqti2QiBmPr2piC-26" style="edgeStyle=orthogonalEdgeStyle;rounded=0;html=1;exitPerimeter=1;entryPerimeter=1;" edge="1" parent="GMRHYqqti2QiBmPr2piC-18" source="GMRHYqqti2QiBmPr2piC-20" target="GMRHYqqti2QiBmPr2piC-21">
          <mxGeometry relative="1" as="geometry" />
        </mxCell>
        <mxCell id="GMRHYqqti2QiBmPr2piC-27" style="edgeStyle=orthogonalEdgeStyle;rounded=0;html=1;exitPerimeter=1;entryPerimeter=1;" edge="1" parent="GMRHYqqti2QiBmPr2piC-18" source="GMRHYqqti2QiBmPr2piC-21" target="GMRHYqqti2QiBmPr2piC-22">
          <mxGeometry relative="1" as="geometry" />
        </mxCell>
        <mxCell id="GMRHYqqti2QiBmPr2piC-28" style="edgeStyle=orthogonalEdgeStyle;rounded=0;html=1;exitPerimeter=1;entryPerimeter=1;" edge="1" parent="GMRHYqqti2QiBmPr2piC-18" source="GMRHYqqti2QiBmPr2piC-22" target="GMRHYqqti2QiBmPr2piC-19">
          <mxGeometry relative="1" as="geometry" />
        </mxCell>
        <mxCell id="GMRHYqqti2QiBmPr2piC-29" style="edgeStyle=orthogonalEdgeStyle;rounded=0;html=1;exitPerimeter=1;entryPerimeter=1;" edge="1" parent="GMRHYqqti2QiBmPr2piC-18" source="GMRHYqqti2QiBmPr2piC-23" target="GMRHYqqti2QiBmPr2piC-21">
          <mxGeometry relative="1" as="geometry" />
        </mxCell>
        <mxCell id="GMRHYqqti2QiBmPr2piC-30" style="edgeStyle=orthogonalEdgeStyle;rounded=0;html=1;exitPerimeter=1;entryPerimeter=1;" edge="1" parent="GMRHYqqti2QiBmPr2piC-18" source="GMRHYqqti2QiBmPr2piC-24" target="GMRHYqqti2QiBmPr2piC-22">
          <mxGeometry relative="1" as="geometry" />
        </mxCell>
      </root>
    </mxGraphModel>
  </diagram>
</mxfile>
